<?xml version="1.0" encoding="utf-8" ?>
<svg xmlns="http://www.w3.org/2000/svg" xmlns:xlink="http://www.w3.org/1999/xlink" width="1230" height="1230">
	<g>
		<path fill="#8A5826" d="M165.988 313.146C174.854 312.646 184.196 312.699 193.08 313.038C293.061 316.854 418.662 369.791 508.642 413.948C532.392 425.604 555.571 438.313 579.077 450.427Q608.465 465.588 636.927 482.422C647.561 488.608 660.385 494.367 668.796 503.403C660.029 501.085 652.851 496.115 645.097 491.67C636.951 487 628.378 482.877 620.05 478.528L570.126 452.861Q524.832 429.591 478.184 409.172Q431.536 388.752 383.713 371.261C344.669 356.869 304.683 343.405 263.854 335.004C221.424 326.274 167.813 321.113 125.5 332.959C107.618 337.965 88.7239 348.769 79.4408 365.446C73.5093 376.101 73.283 389.071 76.6532 400.588C85.5812 431.096 116.53 453.247 143.159 467.595C180.909 487.936 222.26 496.624 264.234 503.378C273.86 504.927 285.67 507.968 295.35 506.487C303.243 505.279 311.457 500.725 318.944 497.812Q330.41 493.397 342.186 489.889C379.389 478.976 417.196 472.332 456.046 472.113C465.868 472.058 475.754 471.833 485.326 474.409C491.822 476.157 499.229 479.544 502.495 485.743C504.35 489.263 504.639 493.805 503.438 497.577C501.54 503.542 495.974 507.172 490.603 509.743C452.385 528.037 365.093 527.395 322.378 524.922C314.155 524.446 302.252 524.954 294.744 522.318C285.677 526.686 278.999 532.866 275.564 542.455C282.14 552.906 289.096 558.883 300.201 564.314C310.054 569.132 320.79 572.084 331.386 574.786C398.209 591.831 481.124 582.27 545.722 560.193Q562.373 554.336 578.344 546.82C589.087 541.706 599.618 536 610.902 532.152C603.155 539.457 591.598 545.043 582.098 549.853C534.314 574.05 482.925 586.538 429.695 590.813C384.797 594.42 310.109 592.069 274.488 561.286C268.957 556.507 264.198 550.594 263.806 542.982C263.345 534.03 268.95 527.506 274.572 521.309C258.792 516.912 242.313 515.716 226.283 512.439C186.672 504.343 136.787 486.065 105.13 460.875C84.9731 444.836 63.1847 421.774 60.4069 395.032C58.6818 378.424 61.5302 361.987 72.4269 348.88C95.0532 321.666 132.965 316.372 165.988 313.146ZM324.537 509.802C341.33 509.876 358.078 511.052 374.916 511.049C383.195 511.17 391.281 510.406 399.532 509.982C425.912 508.629 454.992 507.571 479.889 498.16C482.227 497.277 485.318 496.366 487.088 494.514C487.863 493.704 487.695 493.535 487.799 492.49C485.699 489.457 479.92 488.252 476.406 487.61C465.262 485.574 453.419 485.365 442.113 486.114C410.159 488.778 379.408 493.323 348.554 502.127C340.539 504.414 332.278 506.697 324.537 509.802Z"/>
		<path fill="#8A5826" d="M226.448 526.831C230.41 526.883 234.126 527.531 237.947 528.519C238.026 540.11 235.329 551.317 233.864 562.76C231.861 578.409 230.864 593.898 230.59 609.666Q230.519 614.8 230.572 619.934Q230.626 625.068 230.803 630.199Q230.981 635.33 231.283 640.456Q231.584 645.581 232.01 650.698Q232.436 655.814 232.985 660.919Q233.535 666.024 234.208 671.114Q234.881 676.204 235.677 681.276Q236.472 686.349 237.391 691.4Q238.309 696.452 239.35 701.479Q240.391 706.507 241.552 711.508Q242.714 716.509 243.997 721.481Q245.28 726.452 246.682 731.391Q248.085 736.33 249.607 741.234Q251.129 746.137 252.769 751.003Q254.409 755.868 256.166 760.692Q257.923 765.516 259.797 770.297Q261.671 775.077 263.659 779.81Q265.648 784.544 267.751 789.228Q269.854 793.912 272.069 798.543Q274.285 803.175 276.612 807.752Q278.939 812.328 281.376 816.847Q283.814 821.366 286.359 825.825Q288.905 830.284 291.558 834.68Q294.211 839.075 296.97 843.405Q299.729 847.736 302.591 851.998Q305.454 856.26 308.419 860.452Q311.384 864.643 314.45 868.762Q317.516 872.88 320.68 876.924Q323.845 880.967 327.106 884.932Q330.367 888.897 333.724 892.783Q337.08 896.668 340.53 900.471Q343.979 904.274 347.52 907.992C414.28 977.157 500.127 1023.68 595.777 1036.89C610.066 1038.86 624.433 1040.81 638.88 1041.03C667.592 1041.46 695.489 1040.56 723.919 1036.23C777.911 1028 834.929 1006.65 881.261 977.646C908.527 960.58 934.642 939.441 957.529 916.907Q960.722 913.736 963.847 910.499Q966.973 907.262 970.029 903.96Q973.086 900.657 976.072 897.291Q979.059 893.925 981.973 890.497Q984.888 887.07 987.731 883.581Q990.573 880.093 993.341 876.545Q996.109 872.997 998.802 869.392Q1001.49 865.787 1004.11 862.126Q1006.73 858.465 1009.27 854.75Q1011.8 851.035 1014.26 847.267Q1016.72 843.5 1019.1 839.681Q1021.49 835.862 1023.78 831.994Q1026.08 828.126 1028.3 824.211Q1030.52 820.295 1032.65 816.334Q1034.79 812.373 1036.84 808.367Q1038.89 804.362 1040.85 800.314Q1042.82 796.267 1044.7 792.179Q1046.58 788.091 1048.38 783.964Q1050.17 779.837 1051.88 775.674Q1053.58 771.51 1055.2 767.312Q1056.82 763.113 1058.35 758.882Q1059.88 754.65 1061.32 750.387Q1062.76 746.124 1064.11 741.832Q1065.46 737.539 1066.72 733.22Q1067.98 728.9 1069.15 724.555Q1070.32 720.209 1071.4 715.84Q1072.47 711.471 1073.46 707.081Q1074.44 702.69 1075.33 698.28Q1076.23 693.869 1077.03 689.441Q1077.83 685.013 1078.53 680.569Q1079.24 676.125 1079.85 671.667Q1080.46 667.209 1080.98 662.739C1082.76 646.459 1084.13 629.572 1083.99 613.183C1083.91 604.172 1082.84 595.226 1082.87 586.206C1088.39 587.729 1092.53 589.697 1097.29 592.908C1098.06 596.415 1098.25 600.155 1098.62 603.731C1099.88 611.452 1098.51 619.488 1098.09 627.252C1096.41 657.786 1093.49 687.15 1086.29 716.983Q1085.07 722.233 1083.73 727.452Q1082.38 732.671 1080.9 737.854Q1079.42 743.038 1077.82 748.183Q1076.22 753.328 1074.48 758.432Q1072.75 763.536 1070.89 768.595Q1069.04 773.655 1067.05 778.667Q1065.07 783.678 1062.96 788.639Q1060.86 793.6 1058.63 798.507Q1056.4 803.414 1054.05 808.264Q1051.7 813.114 1049.23 817.905Q1046.76 822.695 1044.17 827.423Q1041.58 832.15 1038.87 836.812Q1036.17 841.474 1033.35 846.067Q1030.53 850.661 1027.6 855.183Q1024.66 859.704 1021.62 864.152Q1018.57 868.6 1015.42 872.971Q1012.27 877.341 1009.01 881.633Q1005.75 885.924 1002.38 890.133Q999.012 894.341 995.541 898.465Q992.071 902.589 988.5 906.626Q984.928 910.663 981.258 914.609Q977.587 918.556 973.82 922.411Q970.052 926.265 966.191 930.025Q962.329 933.784 958.375 937.447Q954.421 941.11 950.377 944.673Q946.333 948.236 942.202 951.698Q938.071 955.16 933.856 958.518Q929.64 961.877 925.343 965.129Q921.045 968.382 916.668 971.527Q912.291 974.672 907.837 977.707Q903.383 980.743 898.856 983.667Q894.328 986.59 889.729 989.401C836.517 1021.87 787.342 1039.38 726.209 1050.01C714.314 1052.08 701.774 1054.62 689.786 1055.6C681.056 1056.3 671.888 1055.74 663.111 1055.73C654.481 1055.71 645.692 1056.23 637.083 1055.86C609.004 1054.65 578.924 1049.84 551.612 1043.22Q546.37 1041.94 541.162 1040.53Q535.953 1039.13 530.78 1037.59Q525.607 1036.06 520.474 1034.4Q515.34 1032.74 510.249 1030.95Q505.157 1029.16 500.111 1027.25Q495.065 1025.34 490.068 1023.31Q485.07 1021.28 480.123 1019.12Q475.177 1016.97 470.285 1014.69Q465.392 1012.42 460.557 1010.02Q455.722 1007.63 450.948 1005.11Q446.173 1002.6 441.461 999.972Q436.749 997.344 432.103 994.6Q427.457 991.857 422.879 989.001Q418.302 986.145 413.796 983.177Q409.289 980.21 404.857 977.133Q400.425 974.055 396.07 970.871Q391.714 967.686 387.438 964.396Q383.162 961.105 378.968 957.711Q374.774 954.317 370.664 950.821Q366.554 947.325 362.531 943.73Q358.508 940.134 354.574 936.441Q350.641 932.748 346.799 928.96Q342.957 925.172 339.209 921.291Q335.461 917.409 331.809 913.438Q328.157 909.466 324.603 905.406Q321.05 901.345 317.597 897.199Q314.144 893.054 310.793 888.824Q307.443 884.595 304.197 880.285Q300.952 875.975 297.812 871.587Q294.673 867.198 291.642 862.734Q288.612 858.271 285.691 853.734Q282.771 849.197 279.962 844.59Q277.808 841.037 275.721 837.445Q273.634 833.853 271.614 830.223Q269.594 826.593 267.642 822.926Q265.69 819.258 263.806 815.556Q261.922 811.853 260.108 808.115Q258.294 804.378 256.549 800.608Q254.805 796.837 253.131 793.035Q251.457 789.233 249.854 785.4Q248.251 781.567 246.72 777.705Q245.188 773.843 243.729 769.954Q242.27 766.064 240.883 762.148Q239.497 758.232 238.183 754.29Q236.87 750.349 235.63 746.384Q234.39 742.419 233.224 738.431Q232.058 734.444 230.966 730.435Q229.875 726.427 228.858 722.399Q227.841 718.371 226.9 714.324Q225.958 710.278 225.092 706.215Q224.226 702.152 223.435 698.073Q222.645 693.995 221.93 689.902Q221.216 685.81 220.578 681.705Q219.94 677.599 219.378 673.483Q218.816 669.367 218.331 665.241Q217.846 661.115 217.438 656.98Q217.03 652.846 216.699 648.705Q216.368 644.564 216.114 640.417Q215.86 636.27 215.684 632.12Q215.507 627.969 215.407 623.816Q215.308 619.663 215.286 615.508Q215.263 611.354 215.318 607.2Q215.374 603.046 215.506 598.893Q215.638 594.741 215.848 590.592C216.416 576.651 218.678 546.993 222.147 533.662C222.971 530.495 223.593 528.552 226.448 526.831Z"/>
		<path fill="#8A5826" d="M776.002 473.607C791.652 471.625 809.009 474.078 824.037 478.574C842.605 484.129 853.059 491.248 862.247 508.451C859.877 510.092 857.315 511.512 854.847 513.002C849.273 502.95 840.627 495.705 830.045 491.384C797.22 477.978 762.342 482.951 730.474 496.306C700.644 508.807 672.312 529.772 659.754 560.462C667.317 563.701 674.398 568.337 680.014 574.385C687.738 582.704 692.937 594.52 692.28 606.003C691.823 613.996 688.634 622.413 682.419 627.67C678.825 630.711 674.444 632.38 669.709 631.801C663.24 631.009 657.763 626.649 653.943 621.591C643.566 607.852 639.299 589.273 641.518 572.353C628.238 570.062 616.636 569.542 603.244 571.299C567.674 575.967 539.306 596.02 517.892 623.964C483.966 668.236 469.617 732.508 476.972 787.361C484.365 842.502 515.867 892.475 559.869 926.091C564.094 930.179 569.4 933.633 574.152 937.103C599.123 955.334 625.726 968.764 653.585 981.91C659.462 984.684 681.459 990.514 684.204 993.95C682.794 994.961 681.046 994.667 679.387 994.449C663.507 992.365 648.005 984.923 633.531 978.479C625.059 974.708 616.353 971.135 608.096 966.92C567.693 946.293 529.979 918.147 502.391 881.848C466.673 834.853 455.768 774.757 463.788 717.026C470.999 665.116 495.884 612.726 538.459 580.817C561.317 563.685 591.891 553.873 620.519 553.908C628.786 553.918 637.286 554.968 645.466 556.12C650.207 546.208 655.549 536.587 662.716 528.201C691.032 495.069 733.092 476.95 776.002 473.607ZM674.157 614.053C676.915 606.814 677.033 600.517 673.78 593.391Q673.466 592.687 673.12 591.999Q672.773 591.31 672.394 590.639Q672.015 589.968 671.605 589.316Q671.194 588.664 670.753 588.032Q670.312 587.4 669.842 586.789Q669.372 586.179 668.873 585.591Q668.374 585.004 667.848 584.441Q667.322 583.878 666.769 583.34Q666.217 582.803 665.64 582.292Q665.063 581.781 664.462 581.299Q663.861 580.816 663.238 580.362Q662.615 579.909 661.971 579.485Q661.328 579.061 660.664 578.669Q660.001 578.276 659.32 577.916Q658.639 577.555 657.942 577.227Q657.244 576.899 656.532 576.605C656.311 581.442 655.885 586.472 656.607 591.286C657.648 598.223 662.144 607.962 666.865 613.182C668.355 614.829 669.491 615.612 671.727 615.964C672.903 615.459 673.378 615.066 674.157 614.053Z"/>
		<path fill="#8A5826" d="M1025.96 240.982C1030.25 240.831 1034.47 240.654 1038.7 241.583C1044.62 242.885 1049.38 246.165 1052.59 251.332C1058.35 260.594 1058.15 272.622 1055.55 282.885C1047.33 315.203 1003.62 366.06 979.78 389.945C975.353 394.38 970.411 398.263 965.858 402.562Q942.099 425.321 917.343 446.993C898.785 463.283 879.561 481.347 858.319 493.995C867.843 480.728 893.877 459.847 906.613 447.771C936.571 419.368 965.57 390.447 992.247 358.888C999.865 349.875 1007.54 341.111 1014.48 331.548C1024.95 317.135 1047.78 284.914 1044.41 266.616C1043.68 262.647 1041.41 258.591 1037.95 256.397C1034.26 254.06 1029.76 253.996 1025.62 254.868C997.751 260.727 964.388 295.707 944.853 315.658C937.822 322.838 927.624 332.413 922.358 340.68C919.046 348.165 918.909 356.982 916.681 364.863C909.906 388.836 900.233 411.77 886.676 432.715C880.11 442.859 870.662 456.678 857.836 459.126C853.648 459.926 848.884 459.741 845.289 457.2C842.248 455.051 840.806 451.321 840.292 447.748C835.982 417.747 891.612 354.383 909.752 329.603C909.021 327.675 908.221 325.277 906.73 323.814C904.813 321.934 901.921 321.405 899.333 321.63C890.456 322.403 880.235 330.626 873.94 336.458C845.124 363.152 830.818 404.618 820.267 441.507C818.498 447.689 817.687 461.969 813.363 466.553C812.821 467.128 812.983 467.038 812.394 467.042C813.065 465.831 812.133 466.061 811.89 464.975C811.366 462.631 812.528 457.851 812.866 455.433C814.207 445.862 816.745 436.49 819.025 427.112C828.261 389.127 842.488 345.553 875.059 321.221C883.234 315.115 895.43 308.676 905.987 310.438C912.065 311.453 915.746 315.353 919.095 320.178C922.638 317.067 925.605 313.234 928.841 309.801C933.89 304.445 939.09 299.197 944.233 293.93C963.991 273.698 997.754 245.15 1025.96 240.982ZM856.372 445.14C876.195 427.065 895.024 392.596 902.302 366.421L901.754 365.669C889.914 382.597 856.085 424.007 855.654 444.129L856.372 445.14Z"/>
		<path fill="#8A5826" d="M636.593 173.203C645.408 172.014 655.777 172.854 664.75 173.047Q668.747 173.138 672.742 173.3Q676.736 173.463 680.728 173.697Q684.719 173.931 688.705 174.236Q692.691 174.542 696.672 174.919Q700.652 175.296 704.625 175.745Q708.597 176.194 712.561 176.713Q716.526 177.233 720.48 177.824Q724.434 178.415 728.377 179.076Q732.32 179.738 736.25 180.47Q740.18 181.203 744.097 182.005Q748.013 182.808 751.915 183.681Q755.817 184.554 759.702 185.497Q763.587 186.44 767.455 187.452Q771.323 188.464 775.172 189.546Q779.021 190.627 782.849 191.778Q786.678 192.928 790.486 194.147Q794.294 195.366 798.079 196.654Q801.864 197.941 805.625 199.296Q809.387 200.65 813.123 202.073Q816.86 203.495 820.57 204.984Q824.281 206.473 827.964 208.028Q831.647 209.583 835.301 211.204Q838.956 212.826 842.581 214.512Q846.206 216.199 849.8 217.95Q853.394 219.701 856.956 221.517Q860.518 223.332 864.047 225.211Q867.576 227.09 871.07 229.032Q874.565 230.975 878.024 232.979Q881.484 234.984 884.906 237.05Q888.329 239.116 891.714 241.244Q895.099 243.371 898.445 245.559Q901.792 247.747 905.098 249.994C917.501 258.426 931.245 266.98 941.67 277.838C938.504 281.318 934.983 284.54 931.621 287.835C922.035 282.216 913.573 274.686 904.636 268.108Q901.255 265.662 897.825 263.284Q894.396 260.906 890.919 258.597Q887.443 256.288 883.921 254.049Q880.399 251.81 876.833 249.642Q873.267 247.474 869.658 245.378Q866.049 243.282 862.399 241.259Q858.749 239.235 855.059 237.285Q851.37 235.335 847.641 233.459Q843.913 231.583 840.149 229.783Q836.384 227.982 832.584 226.257Q828.784 224.532 824.95 222.883Q821.116 221.234 817.25 219.663Q813.384 218.091 809.487 216.597Q805.59 215.103 801.664 213.688Q797.738 212.272 793.785 210.935Q789.831 209.598 785.852 208.341Q781.872 207.084 777.869 205.906Q773.865 204.729 769.838 203.631Q765.812 202.534 761.764 201.518Q757.716 200.502 753.649 199.567Q749.582 198.631 745.496 197.778Q741.411 196.924 737.31 196.153Q733.208 195.381 729.092 194.692Q724.976 194.003 720.847 193.396Q716.718 192.789 712.578 192.265Q708.438 191.741 704.288 191.3Q700.138 190.859 695.98 190.501Q691.822 190.143 687.658 189.868Q683.493 189.593 679.324 189.402Q675.155 189.211 670.983 189.103Q666.811 188.995 662.638 188.971Q658.465 188.947 654.292 189.006C633.914 189.095 614.916 189.991 594.72 193.08C581.727 195.83 568.504 197.463 555.578 200.509Q547.927 202.384 540.35 204.539Q532.773 206.693 525.279 209.123Q517.786 211.553 510.387 214.256Q502.987 216.959 495.692 219.931Q488.397 222.903 481.215 226.14Q474.033 229.378 466.975 232.875Q459.917 236.373 452.991 240.127Q446.066 243.881 439.282 247.886C412.125 264.117 388.606 283.067 365.202 304.311C360.64 308.453 345.671 326.314 341.105 327.461C337.755 328.304 331.669 327.437 328.796 325.53C327.381 324.591 327.376 324.077 327.027 322.539C327.291 321.504 327.549 320.659 328.183 319.781C337.773 306.508 361.556 286.114 374.923 275.13Q380.441 270.636 386.096 266.316Q391.751 261.996 397.537 257.854Q403.323 253.711 409.235 249.751Q415.147 245.79 421.179 242.014Q427.211 238.239 433.358 234.652Q439.504 231.066 445.759 227.672Q452.014 224.278 458.371 221.08Q464.728 217.882 471.181 214.882Q477.634 211.883 484.178 209.085Q490.721 206.288 497.348 203.695Q503.975 201.102 510.679 198.715Q517.383 196.329 524.158 194.152Q530.933 191.975 537.773 190.01Q544.612 188.044 551.509 186.292Q558.406 184.539 565.354 183.002Q572.302 181.464 579.295 180.143C598.411 176.63 617.416 175.647 636.593 173.203Z"/>
		<path fill="#8A5826" d="M967.173 540.409C967.379 540.443 967.589 540.456 967.791 540.51C973.455 542.019 983.978 554.305 987.384 559.362C997.387 574.214 998.54 593.631 995.14 610.747C987.277 650.329 957.166 685.207 924.076 706.941C906.65 718.386 878.363 731.139 856.978 726.576C845.395 724.104 837.628 716.193 831.422 706.56C813.589 678.88 807.128 638.303 814.158 606.33C818.13 588.264 826.975 571.749 842.95 561.674C855.545 553.73 873.957 549.116 888.674 552.505C897.462 554.528 904.883 558.799 909.676 566.699C918.21 580.762 917.072 600.511 913.424 615.861C910.832 626.765 905.231 640.41 895.081 646.35C891.504 648.443 887.529 649.149 883.523 647.943C874.216 645.143 867.364 636.048 862.929 627.914Q861.724 625.2 860.708 622.409C856.06 609.385 852.683 588.251 859.246 575.353C860.6 572.692 863.37 569.862 866.261 569.01C866.736 569.293 867.074 569.298 866.954 569.992C866.19 574.43 863.364 579.148 862.26 583.697C859.621 594.574 861.7 606.452 865.681 616.751C869.984 627.884 876.623 635.618 887.629 640.472C897.344 633.607 901.649 623.839 903.919 612.421C906.261 600.635 906.785 583.569 899.55 573.359C895.679 567.895 889.977 565.084 883.472 564.093C871.896 562.33 858.994 567.186 849.819 574.092C836.933 583.793 829.968 598.469 827.832 614.246C824.324 640.159 830.715 680.719 846.878 701.407C851.22 706.965 856.45 711.389 863.729 712.089C886.089 714.243 916.93 693.963 933.347 680.005C956.863 660.012 980.625 629.037 982.947 597.273C984.868 571.004 974.245 564.274 959.124 546.534C961.665 544.234 964.352 542.341 967.173 540.409Z"/>
		<path fill="#8A5826" d="M638.392 677.006L638.952 676.976C647.262 676.591 654.705 678.281 660.876 684.184C672.109 694.93 673.204 713.4 673.392 727.967C682.402 730.951 692.029 733.819 701.601 733.779C707.268 733.755 713.139 732.853 718.583 731.301C721.164 730.565 724.846 728.928 727.432 728.771C728.236 728.722 728.498 728.869 729.172 729.1C732.148 731.881 731.648 738.802 732.275 742.837C711.56 750.285 693.548 749.746 672.332 745.01C670.932 772.878 661.177 809.794 654.689 837.576C648.916 862.295 642.383 886.602 645.657 912.252C647.191 924.267 651.543 935.694 655.829 946.946C662.29 962.153 671.058 974.596 681.364 987.368C676.537 985.304 672.635 983.192 668.869 979.468C660.773 971.46 653.771 959.006 648.729 948.846C639.805 930.86 634.788 911.675 634.445 891.568C634.188 876.536 637.222 861.245 639.984 846.526C646.332 812.693 657.075 772.667 656.88 738.354L656.869 737.303C645.59 727.932 634.654 717.962 629.883 703.602C627.779 697.267 627.004 689.445 630.317 683.383C632.096 680.127 634.875 678.046 638.392 677.006ZM657.422 715.593C656.904 708.489 655.472 700.401 649.796 695.504C648.144 694.078 646.197 693.193 644.205 692.355C644.611 699.94 648.916 709.067 654.611 714.256C655.508 715.074 656.189 715.563 657.422 715.593Z"/>
		<path fill="#8A5826" d="M752.756 602.577C756.033 602.255 759.814 601.845 763.038 602.604C769.197 604.054 773.559 607.732 776.884 613.017C789.997 633.859 785.456 664.774 780.27 687.337C789.96 695.493 800.969 701.467 810.955 709.156C799.822 705.561 787.965 700.168 779.038 692.51L774.705 700.991C769.414 711.814 763.606 719.857 755.578 728.788C754.001 723.121 752.811 717.382 751.135 711.727C758.167 702.797 762.857 693.886 766.406 683.115C758.946 673.111 751.93 664.481 746.794 652.882C741.404 640.707 738.261 624.905 743.456 612.116C745.377 607.389 748.117 604.611 752.756 602.577ZM767.656 672.541L768.922 672.991C770.601 671.77 770.814 669.237 771.106 667.324C773.119 654.123 773.362 628.314 764.898 617.45C762.383 614.221 759.938 613.197 756.002 612.428C750.711 620.148 749.219 627.939 750.956 637.141C753.417 650.182 759.563 662.144 767.656 672.541Z"/>
		<path fill="#8A5826" d="M707.809 647.12C708.924 647.287 708.919 647.233 709.907 647.559C719.161 650.615 733.371 676.077 737.403 684.86C760.598 735.389 756.396 795.96 737.373 847.004C736.127 849.847 734.598 854.769 731.757 856.231L730.755 855.643C729.183 851.677 733.76 828.406 734.516 822.397Q735.919 812.047 736.741 801.634Q737.563 791.221 737.801 780.779Q738.038 770.337 737.69 759.898Q737.343 749.458 736.411 739.055C734.619 718.593 728.743 691.76 720.22 672.989C716.472 664.735 709.941 656.623 707.951 647.794C707.901 647.57 707.857 647.345 707.809 647.12Z"/>
		<path fill="#8A5826" d="M538.178 764.805C546.009 764.729 554.089 764.571 561.882 765.364C586.875 767.907 614.784 777.908 630.946 797.918C615.486 796.518 599.938 794.055 584.584 791.767C567.632 789.073 550.211 787.486 533.12 785.662C518.192 784.068 503.446 782.126 488.458 781.225L487.768 780.089C487.903 779.539 487.948 779.189 488.292 778.682C494.204 769.959 527.767 766.054 538.178 764.805Z"/>
		<path fill="#8A5826" d="M1044.25 490.942Q1050.47 490.993 1056.68 491.134C1068.34 491.393 1103.88 495.272 1111.57 503.315C1111.05 504.759 1109.65 504.865 1108.22 505.007C1102.56 505.563 1096.62 504.27 1090.95 503.999C1082.51 503.595 1073.96 503.759 1065.51 503.898C1029.62 504.485 996.953 514.631 967.059 534.434C958.981 540.215 951.01 546.337 943.926 553.316C939.418 557.758 935.511 563.45 930.538 567.296L929.389 566.715C929.338 566.517 929.262 566.324 929.235 566.121C928.266 558.838 943.059 540.935 947.697 535.769C972.405 508.244 1007.56 493.027 1044.25 490.942Z"/>
		<path fill="#8A5826" d="M297.713 357.72C301.912 358.183 306.915 359.13 310.005 362.14C310.384 363.277 310.68 363.641 310.418 364.86C309.22 370.429 300.007 381.507 296.662 386.765Q291.066 395.495 286.045 404.568C276.681 421.273 268.061 438.074 261.055 455.931C259.279 460.457 251.577 484.592 249.233 486.131C244.177 485.741 239.209 484.477 234.348 483.094C238.46 473.674 241.255 463.421 245.089 453.825Q249.043 443.739 253.479 433.855Q257.914 423.972 262.821 414.314Q267.728 404.655 273.094 395.245Q278.461 385.834 284.275 376.693C288.313 370.293 292.463 363.197 297.713 357.72Z"/>
		<path fill="#8A5826" d="M1043.14 550.968C1053.88 550.374 1065.79 551.677 1076.34 553.778C1110.88 560.656 1149.34 585.607 1168.99 615.273C1157.07 609.307 1146.73 601.056 1135.53 593.93C1103.41 572.513 1064.81 563.58 1026.41 565.826C1017.5 566.347 1007.7 569.954 998.994 569.593C997.494 568.404 996.316 566.6 996.004 564.686C995.846 563.719 996.27 563.218 996.891 562.49C1002.76 555.594 1034.22 551.912 1043.14 550.968Z"/>
		<path fill="#8A5826" d="M1020.53 365.569C1025.9 367.812 1046.6 407.756 1050.27 414.682C1054.48 422.624 1077.69 470.723 1075.64 477.414C1072.96 477.9 1070.13 477.443 1067.42 477.219L1060.94 475.335C1058.6 471.251 1057.11 466.624 1055.34 462.268Q1050.66 450.942 1045.79 439.701Q1038.33 422.963 1029.35 406.995Q1020.36 391.027 1009.92 375.967C1013.61 372.637 1017.08 369.15 1020.53 365.569Z"/>
		<path fill="#8A5826" d="M804.944 723.506C805.56 724.162 805.399 723.893 805.809 724.776C812.236 738.625 805.178 774.94 800.119 789.358C790.368 817.143 773.641 846.041 746.147 859.311L744.587 859.221C744.477 855.435 761.582 832.933 764.632 827.804Q769.265 819.841 773.425 811.622Q777.586 803.403 781.26 794.955Q784.935 786.507 788.11 777.859Q791.286 769.212 793.953 760.394C797.693 748.145 800.447 735.511 804.944 723.506Z"/>
		<path fill="#8A5826" d="M590.731 833.75C599.17 833.111 611.014 835.948 618.879 839.092C621.557 840.162 624.648 841.399 625.841 844.165C625.038 845.482 623.843 845.58 622.377 845.971C616.835 847.446 611.015 848.003 605.418 849.313C588.388 853.299 571.442 857.87 554.485 862.178C547.027 864.42 535.938 868.668 528.336 868.899C526.909 868.942 526.747 868.87 525.769 867.938C525.845 866.065 526.581 864.83 527.664 863.347C531.245 858.438 536.005 854.49 540.874 850.925C556.44 839.526 572.103 836.75 590.731 833.75Z"/>
		<path fill="#8A5826" d="M523.332 676.614C523.487 676.596 523.643 676.576 523.799 676.56L524.578 676.49C538.409 675.163 552.908 678.7 566.103 682.583C576.81 685.734 610.287 702.519 613.931 711.891C614.462 713.254 614.201 713.686 613.527 714.804C610.042 715.513 604.581 712.731 601.328 711.488C591.767 707.413 581.007 704.582 571.085 701.447C561.965 698.565 552.973 695.251 543.823 692.478C536.465 690.247 513.416 685.357 508.988 681.729C508.054 680.964 508.262 680.733 508.095 679.615L509.022 678.4C513.255 676.254 518.7 676.699 523.332 676.614Z"/>
		<path fill="#8A5826" d="M877.545 512.533C897.356 508.618 928.976 520.134 947.897 527.511C945.552 530.843 943.1 534.109 940.698 537.401Q933.928 533.705 926.683 531.058C900.35 521.193 873.054 516.351 846.644 528.383C832.812 535.502 821.817 545.422 815.078 559.636C812.969 564.084 811.196 569.869 808.153 573.736C807.313 574.802 807.775 574.567 806.677 574.711C806.638 574.487 806.579 574.265 806.56 574.039C805.715 563.977 816.849 545.537 823.004 537.912C836.875 520.726 856.357 514.837 877.545 512.533Z"/>
		<path fill="#8A5826" d="M972.889 306.628C973.879 307.082 974.773 307.56 975.651 308.213C979.728 311.25 995.265 328.219 995.869 332.769C993.859 336.862 990.101 340.339 986.977 343.624C978.337 338.527 969.319 324.756 961.847 317.134C965.438 313.553 969.212 310.123 972.889 306.628Z"/>
		<path fill="#8A5826" d="M1072.57 518.068C1077.11 518.05 1082.21 517.399 1086.2 519.995C1091.52 523.458 1092.34 536.813 1093.48 542.793C1088.28 541.452 1083.18 540.498 1077.85 539.793C1075.64 532.708 1074.7 525.215 1072.57 518.068Z"/>
	</g>
	<g>
		<path fill="#8A5826" d="M858.869 527.69C860.342 528.232 860.609 528.22 861.486 529.489C861.466 530.331 861.436 531.086 861.235 531.908C858.652 542.49 850.623 552.091 841.691 557.86L839.92 557.95L839.256 557.264C839.305 557.026 839.334 556.783 839.405 556.55C839.964 554.694 853.414 532.172 854.551 530.799C855.678 529.438 857.355 528.555 858.869 527.69Z"/>
		<path fill="#8A5826" d="M817.221 580.689C817.888 581.391 817.886 581.725 817.777 582.729C816.979 590.055 797.822 603.249 791.838 606.824C791.463 606.553 791.178 606.098 790.889 605.737C792.032 601.942 812.856 584.564 817.221 580.689Z"/>
	</g>
</svg>
