<?xml version="1.0" encoding="utf-8" ?>
<svg xmlns="http://www.w3.org/2000/svg" xmlns:xlink="http://www.w3.org/1999/xlink" width="1263" height="1297">
	<g>
		<path fill="#885729" d="M168.57 178.215C170.119 177.932 171.695 177.911 173.265 177.885C189.243 177.615 205.881 179.274 221.71 181.331C342.503 197.033 483.284 264.306 590.815 322.427Q609.482 332.568 627.961 343.046C644.824 352.485 662.395 361.157 676.386 374.774C664.96 369.654 654.089 363.145 642.979 357.382Q604.929 337.388 566.46 318.213C455.709 263.101 243.415 166.091 122.009 198.823C103.444 203.828 82.2839 213.968 72.4708 231.398C66.2299 242.483 65.593 256.507 68.9845 268.626C77.3716 298.595 106.77 320.833 132.596 335.395C171.806 357.502 217.087 366.647 261.026 373.689C271.172 375.315 283.779 378.555 293.998 377.191C302.186 376.098 311.027 371.295 318.735 368.251Q331.732 363.045 345.195 359.204C381.903 349.648 457.173 333.539 492.959 345.994C498.632 347.969 504.395 351.145 506.935 356.887C508.748 360.983 508.596 366.675 506.738 370.745C494.536 397.485 376.31 398.54 348.762 397.815C337.86 397.528 297.695 393.487 290.193 396.334C281.869 399.493 276.334 407.258 272.928 415.095C277.885 423.687 285.469 430.115 294.15 434.734C307.187 441.669 322.471 445.71 336.864 448.891C405.14 463.98 481.169 456.043 547.046 433.824C560.523 429.279 574.033 423.958 586.854 417.798C594.862 413.951 603.49 408.09 611.911 405.56L612.689 406.201C612.459 407.594 612.263 408.011 611.247 409.078C604.88 415.766 592.697 420.262 584.353 424.12C535.816 446.566 476.875 464.051 423.192 464.813C377.462 465.461 305.46 466.025 270.664 431.945C265.446 426.835 261.259 420.454 261.406 412.864C261.569 404.496 267.197 397.783 272.983 392.367C208.642 382.861 145.102 368.689 93.1078 327.371C73.2327 311.576 55.1141 288.847 52.3 262.841C50.3484 244.806 54.003 228.313 65.6461 214.161C83.5493 192.4 114.984 183.899 141.867 180.545C150.753 179.436 159.674 179.129 168.57 178.215ZM325.245 381.163C338.576 381.929 351.811 382.008 365.155 381.997C394.312 382.103 471.145 380.007 494 363.268C482.967 357.974 467.394 354.626 455.212 355.529C442.09 357.093 428.858 357.762 415.711 359.299C389.515 362.363 348.568 369.588 325.245 381.163Z"/>
		<path fill="#885729" d="M220.459 397.906C224.83 398.556 230.7 398.863 234.511 401.171C235.138 402.831 234.994 404.384 234.828 406.111C234.305 411.558 233.058 417.01 232.355 422.451C229.764 442.501 227.063 463.442 226.862 483.697Q226.812 489.072 226.894 494.446Q226.975 499.821 227.188 505.191Q227.401 510.562 227.746 515.926Q228.09 521.29 228.565 526.644Q229.04 531.998 229.646 537.339Q230.252 542.68 230.988 548.004Q231.724 553.328 232.59 558.633Q233.456 563.938 234.452 569.22Q235.448 574.502 236.572 579.758Q237.696 585.014 238.949 590.241Q240.201 595.469 241.581 600.664Q242.961 605.858 244.467 611.018Q245.973 616.178 247.605 621.299Q249.238 626.42 250.994 631.5Q252.751 636.58 254.631 641.616Q256.512 646.651 258.515 651.639Q260.517 656.627 262.642 661.565Q264.766 666.503 267.01 671.387Q269.254 676.271 271.617 681.099Q273.98 685.927 276.46 690.696Q278.94 695.465 281.536 700.171Q284.132 704.878 286.843 709.52Q289.553 714.162 292.376 718.736Q295.199 723.311 298.133 727.815Q301.067 732.319 304.11 736.75Q307.153 741.181 310.303 745.536Q313.454 749.891 316.71 754.168Q319.966 758.445 323.325 762.641Q326.685 766.837 330.146 770.95Q333.607 775.063 337.167 779.09Q340.728 783.117 344.386 787.056Q348.044 790.995 351.797 794.843Q355.536 798.679 359.369 802.423Q363.201 806.166 367.124 809.814Q371.047 813.462 375.059 817.013Q379.07 820.564 383.168 824.015Q387.265 827.466 391.446 830.816Q395.627 834.166 399.889 837.412Q404.151 840.658 408.491 843.798Q412.832 846.938 417.248 849.971Q421.664 853.004 426.153 855.928Q430.643 858.852 435.202 861.664Q439.762 864.477 444.389 867.177Q449.017 869.876 453.709 872.462Q458.401 875.047 463.156 877.517Q467.91 879.986 472.724 882.338Q477.537 884.69 482.407 886.924Q487.277 889.157 492.2 891.27Q497.123 893.383 502.096 895.374Q507.07 897.366 512.091 899.235Q517.112 901.104 522.177 902.849Q527.243 904.594 532.349 906.214Q537.456 907.834 542.601 909.329Q547.746 910.823 552.926 912.191Q558.106 913.559 563.318 914.799Q568.53 916.039 573.771 917.151Q579.012 918.263 584.278 919.246Q589.545 920.229 594.834 921.082Q600.124 921.935 605.432 922.658Q610.741 923.382 616.065 923.974Q621.39 924.567 626.728 925.029Q632.065 925.491 637.413 925.822Q642.76 926.152 648.114 926.352Q653.468 926.551 658.825 926.619Q664.271 926.695 669.717 926.635Q675.163 926.575 680.606 926.38Q686.049 926.184 691.486 925.853Q696.922 925.522 702.349 925.056Q707.775 924.589 713.188 923.988Q718.601 923.386 723.998 922.65Q729.394 921.914 734.771 921.044Q740.147 920.173 745.5 919.169Q750.853 918.165 756.18 917.028Q761.506 915.891 766.803 914.621Q772.099 913.352 777.362 911.951Q782.625 910.55 787.852 909.018Q793.079 907.486 798.265 905.825Q803.452 904.163 808.596 902.373Q813.74 900.583 818.837 898.665Q823.935 896.748 828.983 894.703Q834.031 892.659 839.027 890.49Q844.022 888.32 848.962 886.027Q853.902 883.734 858.784 881.319Q863.665 878.903 868.485 876.367Q873.305 873.83 878.059 871.175Q882.814 868.519 887.502 865.746Q892.189 862.972 896.806 860.083Q901.422 857.194 905.965 854.191Q910.509 851.187 914.976 848.072Q919.443 844.956 923.831 841.73Q928.219 838.504 932.525 835.17Q936.831 831.836 941.053 828.395Q945.274 824.954 949.409 821.41Q953.544 817.865 957.589 814.219Q961.634 810.572 965.587 806.826Q969.54 803.08 973.398 799.236Q976.269 796.396 979.086 793.504Q981.904 790.612 984.669 787.668Q987.433 784.725 990.143 781.731Q992.853 778.737 995.508 775.694Q998.162 772.652 1000.76 769.561Q1003.36 766.47 1005.9 763.331Q1008.44 760.193 1010.92 757.009Q1013.41 753.825 1015.83 750.595Q1018.26 747.366 1020.62 744.093Q1022.98 740.82 1025.29 737.504Q1027.59 734.188 1029.84 730.83Q1032.08 727.473 1034.26 724.074Q1036.44 720.676 1038.56 717.238Q1040.68 713.801 1042.73 710.325Q1044.79 706.849 1046.78 703.335Q1048.77 699.822 1050.69 696.273Q1052.62 692.724 1054.48 689.141Q1056.34 685.557 1058.14 681.94Q1059.93 678.322 1061.66 674.673Q1063.39 671.023 1065.05 667.343Q1066.71 663.662 1068.3 659.952Q1069.89 656.241 1071.42 652.502Q1072.94 648.763 1074.4 644.997Q1075.85 641.23 1077.24 637.438Q1078.62 633.646 1079.94 629.828Q1081.26 626.011 1082.5 622.17Q1083.75 618.33 1084.92 614.467Q1086.1 610.604 1087.2 606.72Q1088.31 602.836 1089.34 598.933Q1090.37 595.029 1091.33 591.107Q1092.3 587.186 1093.18 583.247Q1094.07 579.308 1094.89 575.354C1098.81 555.974 1101.03 536.035 1102.55 516.334C1104.01 497.281 1102.78 477.878 1102.91 458.769C1107.03 460.052 1113.13 461.203 1116.26 464.166C1119.23 466.974 1118.91 470.614 1119.12 474.391C1119.09 484.752 1119.33 495.199 1118.88 505.547C1115.73 577.522 1098.16 642.222 1064.06 705.668Q1061.43 710.497 1058.69 715.261Q1055.95 720.024 1053.09 724.72Q1050.24 729.416 1047.27 734.04Q1044.3 738.665 1041.21 743.216Q1038.13 747.767 1034.94 752.242Q1031.75 756.717 1028.45 761.113Q1025.15 765.509 1021.74 769.823Q1018.34 774.138 1014.83 778.368Q1011.32 782.598 1007.7 786.742Q1004.09 790.885 1000.38 794.94Q996.671 798.995 992.862 802.958Q989.053 806.921 985.149 810.79Q981.245 814.66 977.248 818.433Q973.25 822.206 969.163 825.881Q965.075 829.556 960.899 833.13Q956.723 836.705 952.462 840.177Q948.2 843.649 943.855 847.016Q939.51 850.383 935.085 853.644Q930.66 856.904 926.156 860.056Q921.653 863.208 917.074 866.25Q912.495 869.291 907.844 872.221Q903.193 875.15 898.471 877.965Q893.75 880.781 888.962 883.48Q884.173 886.18 879.321 888.762Q874.468 891.345 869.554 893.808Q864.64 896.272 859.668 898.615Q854.695 900.959 849.667 903.181Q844.639 905.403 839.559 907.501Q834.478 909.6 829.348 911.575Q824.218 913.55 819.041 915.399Q813.865 917.249 808.645 918.972Q803.424 920.694 798.164 922.29Q792.819 923.927 787.435 925.431Q782.051 926.936 776.632 928.308Q771.212 929.68 765.761 930.918Q760.309 932.156 754.829 933.26Q749.349 934.364 743.843 935.333Q738.338 936.301 732.81 937.135Q727.282 937.968 721.735 938.665Q716.188 939.361 710.626 939.922Q705.064 940.482 699.49 940.906Q693.916 941.329 688.333 941.616Q682.75 941.902 677.161 942.051Q671.573 942.2 665.983 942.211Q660.392 942.223 654.804 942.097Q649.215 941.971 643.631 941.708Q638.047 941.444 632.471 941.044Q626.895 940.643 621.33 940.106Q615.766 939.569 610.216 938.895Q604.667 938.22 599.136 937.41Q593.604 936.6 588.095 935.654Q582.585 934.708 577.1 933.627Q571.615 932.545 566.159 931.33Q560.703 930.114 555.278 928.764Q549.853 927.415 544.463 925.932Q539.073 924.45 533.721 922.835Q528.369 921.221 523.058 919.475Q517.747 917.729 512.481 915.854Q507.215 913.978 501.996 911.974Q496.778 909.969 491.61 907.837Q486.443 905.704 481.329 903.446Q476.216 901.187 471.159 898.804Q466.103 896.42 461.106 893.913Q456.11 891.405 451.177 888.776C348.378 833.242 265.301 737.472 231.712 624.823C212.284 559.665 205.775 495.977 214.821 428.396C215.695 421.864 217.86 402.714 220.459 397.906Z"/>
		<path fill="#885729" d="M222.785 1048.24C233.51 1047.18 244.555 1047.8 255.214 1049.15C254.793 1077.41 255.08 1105.72 255.082 1133.98C267.269 1133.23 279.908 1134.63 292.172 1134.72C304.433 1134.82 316.605 1133.77 328.854 1133.81L328.767 1048.83C341.895 1048.42 354.193 1047.63 367.355 1048.89C366.604 1072.86 368.528 1239.32 366.629 1243.64L364.997 1243.83L328.918 1243.81C328.435 1215.16 328.802 1186.41 328.904 1157.75C304.433 1156.86 279.684 1157.6 255.187 1157.68C255.605 1186.37 255.199 1215.13 255.19 1243.83Q236.155 1243.77 217.121 1243.93C216.614 1228.98 217.12 1213.85 217.145 1198.88L217.216 1112.71C217.213 1104.45 216.069 1055.22 217.499 1050.14C219.217 1048.63 220.57 1048.67 222.785 1048.24Z"/>
		<path fill="#885729" d="M781.446 344.142C802.104 341.705 827.582 344.714 846.836 352.471C859.933 357.747 870.991 366.864 876.579 379.997C873.795 380.992 870.851 381.518 867.967 382.151C865.528 379.514 863.734 376.531 861.534 373.717C857.736 368.858 851.415 365.57 845.869 363.062C818.26 350.58 780.622 351.921 752.737 362.658C717.251 376.32 683.938 396.869 667.937 433.008C674.837 435.436 681.688 439.52 686.931 444.642C695.741 453.249 701.135 465.749 701.092 478.093C701.064 486.232 698.537 495.168 692.489 500.878C688.541 504.606 683.408 506.685 677.952 506.278C671.662 505.809 666.679 501.804 662.842 497.073C650.925 482.378 647.416 462.643 649.237 444.273Q640.759 443.298 632.227 443.187Q623.694 443.076 615.194 443.831C579.537 447.093 549.244 465.355 526.713 492.829C491.766 535.444 473.585 598.912 479.231 653.601C483.996 699.748 498.174 737.263 528.605 772.799Q535.842 781.344 543.823 789.198Q551.805 797.053 560.464 804.153C588.939 827.748 619.153 846.496 652.973 861.633C660.421 864.967 668.154 868.171 675.83 870.926C679.55 872.262 684.058 873.063 687.525 874.921C689.016 875.72 690.338 876.502 690.886 878.107C689.4 878.729 688.132 878.615 686.561 878.478C675.753 877.537 665.791 872.762 655.778 869.044C601.881 849.031 550.273 816.142 512.932 772.063C474.599 726.812 460.025 668.028 464.937 609.657C469.563 554.69 492.213 496.587 535.25 460.478C571.331 430.206 608.494 424.248 654.102 428.221C657.728 418.498 663.247 409.378 669.693 401.277C696.135 368.042 739.993 348.767 781.446 344.142ZM682.968 488.304C685.758 482.665 685.92 476.202 684.009 470.244C681.119 461.231 673.607 454.102 665.171 450.119C664.938 450.009 664.696 449.918 664.459 449.817C664.431 454.275 663.99 459.302 664.655 463.692C665.811 471.337 670.092 482.549 675.62 488.098C676.905 489.389 677.951 489.972 679.69 490.448C681.476 489.986 681.678 489.662 682.968 488.304Z"/>
		<path fill="#885729" d="M723.403 1047.76C744.136 1047.72 764.843 1048.82 785.549 1048.66C804.929 1048.51 824.919 1046.32 844.184 1049.09C843.983 1056.76 844.14 1064.47 844.158 1072.15C813.466 1071.72 782.691 1071.92 751.995 1072.16C752.869 1092.63 752.037 1113.47 752.009 1133.97C766.235 1133.26 796.144 1132.44 809.059 1135.09C809.175 1142.69 808.643 1150.23 808.151 1157.81C789.445 1157.35 770.643 1157.6 751.929 1157.77C752.296 1171.1 751.96 1184.55 751.956 1197.89L751.964 1220.85L844.09 1221.09C843.997 1228.75 844.09 1236.43 844.104 1244.1C832.719 1243.6 821.207 1244.09 809.804 1244Q761.951 1243.59 714.101 1244.34C713.52 1220.36 713.915 1196.26 713.922 1172.27L714.13 1049.92C717.24 1048.49 719.995 1047.99 723.403 1047.76Z"/>
		<path fill="#885729" d="M1044.14 103.984C1048.92 103.755 1053.53 103.701 1058.19 105.069C1065.2 107.128 1070.69 111.923 1073.93 118.437C1079.08 128.777 1077.12 141.677 1073.67 152.236C1055.67 207.368 973.777 280.181 929.759 318.981C911.949 334.678 893.886 353.065 872.583 363.913C881.296 350.461 903.251 334.324 915.445 322.708C940.994 298.371 965.987 273.939 989.832 247.918C1011.64 224.124 1064.99 165.488 1062.82 132.342C1062.55 128.24 1061.72 124.901 1058.47 122.165C1054.97 119.214 1050.72 118.364 1046.24 118.887C1015.06 122.529 956.888 182.61 937.361 207.888C934.527 212.833 933.686 226.018 932.002 232.184C924.113 261.071 910.221 293.237 890.557 316.066C884.882 322.655 876.298 329.807 867.174 330.168C863.811 330.301 860.776 329.111 858.391 326.736C853.553 321.917 852.57 314.661 853.48 308.183C856.647 285.654 885.136 246.723 899.306 228.559C906.588 219.224 915.758 209.918 921.833 199.824C923.046 197.807 924.272 195.077 923.979 192.643C923.795 191.119 923.085 189.901 921.763 189.082C918.373 186.979 912.66 188.229 909.16 189.329C871.378 201.201 845.972 265.966 835.621 300.936C831.991 313.2 830.974 327.736 825 339.016L824.556 339.844Q824.342 334.539 824.926 329.261C826.188 317.212 829.03 305.365 831.925 293.622C841.097 256.418 855.537 214.124 886.408 189.32C895.274 182.198 908.547 174.27 920.441 175.817C927.069 176.68 930.485 180.383 934.373 185.326C941.166 179.618 946.746 172.337 953.004 166.032C978.601 140.239 1007.42 111.986 1044.14 103.984ZM869.597 313.695C886.691 302.25 911.638 256.57 916.076 236.263C916.323 235.133 916.332 234.633 916.01 233.51C905.971 247.152 867.934 297.089 869.141 311.926C869.202 312.669 869.367 313.037 869.597 313.695Z"/>
		<path fill="#885729" d="M639.011 1049.33C647.384 1047.66 654.673 1047.71 663.111 1048.89C659.992 1062.05 655.591 1074.95 651.555 1087.86L603.444 1243.83C591.879 1244.03 580.288 1243.87 568.721 1243.86C560.194 1219.32 553.589 1193.92 545.992 1169.06L520.603 1084.6C517.811 1075.28 514.504 1066.08 511.872 1056.71C511.261 1054.54 510.029 1051.42 510.485 1049.16L512.473 1048.25C523.541 1047.78 537.382 1046.45 548.024 1049.7C555.173 1062.86 557.984 1079.29 562.298 1093.64C572.667 1128.12 582.272 1162.94 593.639 1197.11C599.735 1174.41 607.451 1151.77 614.29 1129.26C622.391 1102.58 629.824 1075.65 639.011 1049.33Z"/>
		<path fill="#885729" d="M653.391 35.0648C653.478 35.0564 653.565 35.0441 653.652 35.0396C666.812 34.36 679.786 35.292 692.911 36.0539Q696.822 36.2709 700.729 36.5566Q704.636 36.8424 708.537 37.1968Q712.438 37.5512 716.332 37.9742Q720.226 38.3972 724.112 38.8886Q727.999 39.38 731.875 39.9397Q735.752 40.4994 739.619 41.1272Q743.485 41.755 747.34 42.4507Q751.195 43.1464 755.037 43.9098Q758.879 44.6733 762.707 45.5041Q766.535 46.335 770.348 47.2331Q774.161 48.1311 777.957 49.0961Q781.753 50.0611 785.532 51.0928Q789.311 52.1244 793.071 53.2223Q796.831 54.3203 800.571 55.4842Q804.311 56.6481 808.031 57.8776Q811.75 59.1071 815.447 60.4018Q819.144 61.6966 822.817 63.0561Q826.491 64.4157 830.14 65.8397Q833.789 67.2636 837.412 68.7516Q841.036 70.2395 844.632 71.7909Q848.229 73.3424 851.798 74.9568Q855.367 76.5713 858.907 78.2483Q862.447 79.9253 865.956 81.6643Q869.466 83.4033 872.945 85.2037Q876.424 87.0042 879.87 88.8655Q883.317 90.7269 886.73 92.6486Q890.143 94.5703 893.522 96.5518Q896.901 98.5332 900.244 100.574Q903.588 102.614 906.895 104.713Q910.202 106.812 913.471 108.969Q916.741 111.126 919.972 113.34Q923.203 115.554 926.395 117.825C937.039 125.367 947.62 132.903 957.434 141.52C954.181 145.752 950.239 149.524 946.543 153.371C937.234 147.276 928.458 139.872 919.503 133.234Q916.05 130.722 912.549 128.28Q909.047 125.837 905.497 123.465Q901.948 121.092 898.352 118.79Q894.756 116.488 891.115 114.258Q887.474 112.028 883.789 109.871Q880.105 107.713 876.378 105.629Q872.652 103.545 868.885 101.536Q865.118 99.5259 861.311 97.5914Q857.505 95.6568 853.661 93.7981Q849.818 91.9394 845.938 90.1573Q842.058 88.3752 838.143 86.6703Q834.229 84.9655 830.281 83.3386Q826.333 81.7117 822.354 80.1635Q818.375 78.6152 814.366 77.1461Q810.357 75.677 806.32 74.2878Q802.282 72.8985 798.218 71.5895Q794.154 70.2806 790.065 69.0525Q785.976 67.8244 781.863 66.6776Q777.75 65.5308 773.615 64.4658Q769.48 63.4008 765.325 62.418Q761.17 61.4352 756.996 60.535Q752.823 59.6348 748.632 58.8175Q744.441 58.0002 740.235 57.2662Q736.029 56.5322 731.809 55.8817Q727.589 55.2313 723.357 54.6646Q719.125 54.0979 714.882 53.6153Q710.64 53.1327 706.389 52.7343Q702.138 52.3359 697.879 52.0218Q693.621 51.7078 689.358 51.4783Q685.094 51.2487 680.827 51.1038Q676.559 50.9588 672.29 50.8985Q668.021 50.8382 663.751 50.8626C640.285 50.8751 616.212 53.3397 593.032 56.7886C522.685 67.0502 446.614 101.823 391.775 146.767C383.546 153.511 375.31 160.417 367.671 167.829C358.464 176.762 349.812 186.27 340.443 195.036C334.887 193.642 329.519 191.789 324.105 189.933C324.912 188.497 325.788 187.144 326.807 185.847C338.443 171.029 353.427 157.509 367.8 145.396C424.165 97.8919 491.668 62.0496 563.943 46.2342Q578.566 42.9439 593.379 40.6539Q608.192 38.3639 623.126 37.0846C633.206 36.1885 643.348 36.2813 653.391 35.0648Z"/>
		<path fill="#885729" d="M1015.44 1047.74C1020.41 1047.57 1025.23 1048.25 1030.11 1049.07C1026.42 1059.12 1020.84 1069.02 1015.92 1078.53L994.765 1119.19C990.445 1127.42 984.525 1136.41 982.216 1145.44C979.282 1156.92 981.135 1171.02 981.156 1182.89L981.118 1243.75Q962.057 1243.71 942.998 1244.02C942.484 1223.88 942.992 1203.61 943.008 1183.45C943.018 1170.15 943.728 1156.51 940.898 1143.45C931.012 1121.66 919.294 1100.79 908.37 1079.52C903.291 1069.63 896.412 1058.82 893.753 1047.97C902.947 1047.97 921.276 1046.39 929.391 1048.71C931.856 1049.42 933.441 1051.51 934.888 1053.5C938.801 1058.91 941.715 1065.45 944.824 1071.36C953.103 1087.08 960.478 1103.5 969.357 1118.88C982.516 1095.97 991.55 1070.83 1005.73 1048.53L1015.44 1047.74Z"/>
		<path fill="#885729" d="M984.433 411.454C984.702 411.489 984.98 411.484 985.239 411.56C991.583 413.436 1003.27 429.151 1006.7 435.025C1016.27 451.423 1015.88 473.362 1011.21 491.228C1000.8 531.097 966.928 567.425 931.777 587.777C916.356 596.705 887.196 608.936 869.126 603.684C855.508 599.727 847.308 588.402 840.66 576.588C823.827 546.677 819.072 505.78 828.447 472.731C833.316 455.569 845.114 440.023 860.821 431.349C873.264 424.478 891.826 421.386 905.606 425.436Q906.422 425.684 907.224 425.972Q908.027 426.26 908.814 426.588Q909.601 426.915 910.372 427.281Q911.142 427.646 911.893 428.05Q912.645 428.453 913.375 428.893Q914.105 429.332 914.813 429.808Q915.521 430.283 916.205 430.792Q916.889 431.302 917.546 431.844Q918.204 432.387 918.834 432.961Q919.464 433.536 920.065 434.14Q920.666 434.745 921.237 435.379Q921.807 436.012 922.346 436.673Q922.885 437.334 923.39 438.021Q923.895 438.708 924.366 439.418Q924.837 440.129 925.272 440.862Q925.707 441.595 926.106 442.349C934.152 457.533 931.899 480.276 926.686 496C923.591 505.332 917.653 517.471 908.274 521.811Q907.866 521.996 907.45 522.16Q907.033 522.324 906.608 522.466Q906.183 522.608 905.752 522.728Q905.32 522.848 904.883 522.945Q904.446 523.042 904.004 523.116Q903.563 523.19 903.118 523.241Q902.673 523.292 902.226 523.32Q901.779 523.348 901.331 523.352Q900.883 523.357 900.436 523.338Q899.988 523.319 899.542 523.277Q899.096 523.235 898.653 523.17Q898.21 523.104 897.771 523.016Q897.332 522.928 896.898 522.817Q896.464 522.706 896.037 522.573Q895.609 522.439 895.189 522.284Q894.769 522.128 894.358 521.951C884.743 517.895 879.043 506.996 875.107 497.925C872.057 491.179 870.331 483.333 869.633 475.983C868.72 466.351 869.004 453.264 875.611 445.647C876.738 444.347 877.965 443.049 879.722 442.89C881.043 445.089 875.56 455.314 875.191 458.785C873.488 474.815 877.688 492.994 888.174 505.502C891.06 508.945 897.091 514.77 901.781 514.683C903.523 514.65 904.514 514.189 905.741 513.027C915.354 503.922 919.234 487.933 919.933 475.215C920.498 464.926 919.634 451.965 912.222 444.011C907.487 438.93 900.685 436.528 893.833 436.493C879.557 436.419 866.026 443.504 856.287 453.623C842.561 467.885 838.852 488.33 839.288 507.516C839.795 529.836 847.112 566.461 864.384 582.296C869.313 586.814 874.766 589 881.47 588.698C912.194 587.311 946.217 560.61 966.403 538.501C984.168 519.044 1001.95 490.655 1000.47 463.207C999.422 443.775 988.432 431.855 974.648 419.543C977.754 416.678 981.134 414.094 984.433 411.454Z"/>
		<path fill="#885729" d="M439.762 1047.71C446.249 1048.48 452.623 1048.73 459.147 1048.81L459.17 1180.44L459.178 1218.9C459.177 1226.74 459.67 1235 458.559 1242.76C455.139 1244.96 444.828 1243.84 440.53 1243.82L421.13 1243.92C420.178 1229.34 420.755 1214.41 420.74 1199.78L420.693 1121.66L420.626 1074.05C420.595 1066.29 419.778 1058.03 420.73 1050.35C424.569 1047.44 434.78 1048.35 439.762 1047.71Z"/>
		<path fill="#885729" d="M646.816 552.321C653.492 551.604 660.171 552.945 665.789 556.737C681.517 567.352 679.67 589.323 682.542 605.746C703.999 611.815 719.113 611.408 740.254 604.66Q740.865 612.382 741.977 620.049C721.76 627.787 701.697 627.27 680.771 622.521C677.739 648.22 672.657 674.023 666.844 699.216C661.079 724.198 651.539 754.451 652.228 780.179C652.679 797.041 657.596 813.481 663.476 829.156C670.252 844.782 680.005 857.624 689.459 871.579C682.702 869.031 678.016 865.181 673.489 859.639C666.402 850.964 660.999 840.801 656.16 830.731C632.68 781.876 644.77 743.831 654.097 693.917C659.011 667.62 662.997 641.488 665.55 614.851C655.027 605.74 644.137 597.489 638.609 584.189C635.727 577.256 634.078 567.101 637.245 560.044C639.171 555.755 642.554 553.837 646.816 552.321ZM665.142 592.966C664.496 585.455 663.802 576.608 657.467 571.497C655.645 570.028 653.738 569.363 651.48 568.902C653.249 577.752 657.464 587.573 665.142 592.966Z"/>
		<path fill="#885729" d="M768.115 475.056C769.924 474.908 771.666 474.975 773.435 475.405C779.995 476.998 784.862 481.464 788.223 487.169C800.549 508.089 797.347 540.011 791.511 562.553C801.056 570.656 812.335 576.81 821.471 585.277C810.042 581.343 799.82 575.253 789.936 568.384L784.234 581.753C780.061 591.033 774.223 598.448 766.526 605.019C764.868 599.705 763.69 594.229 762.396 588.817C767.945 578.612 774.054 569.52 778.012 558.45C767.808 548.317 758.936 534.526 754.608 520.772C751.358 510.446 748.723 495.07 754.306 485.109C757.329 479.715 762.289 476.678 768.115 475.056ZM777.891 547.306L779.314 548.848C780.607 548.329 780.599 548.1 781.111 546.847C785.47 536.171 783.222 504.859 778.29 494.281C776.38 490.187 773.706 486.976 769.536 485.073C765.52 487.273 763.083 490.642 761.883 495.059C757.867 509.852 765.783 527.924 773.278 540.282Q775.489 543.857 777.891 547.306Z"/>
		<path fill="#885729" d="M718.139 521.849C718.362 521.904 718.591 521.94 718.808 522.015C729.287 525.631 744.145 552.786 748.496 562.504C771.454 613.787 767.624 675.449 747.729 727.139C746.637 730.14 745.491 734.679 742.674 736.459L741.812 735.777C739.449 726.877 747.088 684.867 747.648 671.321C748.647 647.138 748.037 622.485 744.723 598.481C741.639 576.143 733.7 555.14 723.205 535.31C720.949 531.047 718.016 526.838 718.139 521.849Z"/>
		<path fill="#885729" d="M1064.46 361.234C1079.73 359.25 1111.48 364.499 1125.73 370.225C1128.04 371.154 1130.8 372.18 1131.85 374.609C1131.34 376.131 1131.33 376.244 1129.62 376.678C1122.95 378.377 1094.22 374.829 1084.4 374.895C1049.23 375.131 1012.13 386.421 983.706 407.083C975.568 412.759 967.265 419.116 960.095 425.972C956.411 429.494 953.293 433.633 949.44 436.981C948.066 438.175 946.626 439.467 944.783 439.779L944.604 438.651C948.709 427.704 952.627 420.74 960.029 411.653C987.234 378.258 1022.95 365.601 1064.46 361.234Z"/>
		<path fill="#885729" d="M540.668 643.036C553.625 642.698 566.13 642.715 578.929 645.223C598.298 649.018 615.49 656.802 630.941 669.059C633.516 671.102 636.407 672.841 638.272 675.596L637.931 676.599C634.458 677.738 601.911 672.339 595.525 671.481L525.067 663.023C514.281 661.788 503.356 661.136 492.605 659.72C491.542 659.58 490.774 659.276 489.854 658.741L490.095 657.684C502.577 646.826 524.707 644.796 540.668 643.036Z"/>
		<path fill="#885729" d="M1066.03 423.308C1081.68 419.826 1116.18 430.908 1130.59 438.125C1149.29 447.497 1182.49 468.949 1189.16 488.841C1176.31 482.824 1164.79 474.04 1153.12 466.031C1124.44 448.544 1085.83 436.261 1052.08 438.079Q1041.27 438.761 1030.54 440.304C1026.65 440.899 1022.59 442.121 1018.67 442.244C1017.61 442.278 1016.77 442.003 1015.79 441.64C1013.84 440.14 1013.15 437.78 1012.21 435.578C1029.24 426.839 1047.22 424.76 1066.03 423.308Z"/>
		<path fill="#885729" d="M295.269 225.396C299.987 226.195 305.602 226.431 309.225 229.857C310.058 232.181 309.403 233.181 308.222 235.288C301.373 247.512 292.46 258.758 285.303 270.885C269.108 298.325 257.227 327.336 246.763 357.346C241.244 356.466 235.784 355.178 230.357 353.854C235.883 342.277 239.563 329.596 244.48 317.72C257.971 285.136 273.975 253.618 295.269 225.396Z"/>
		<path fill="#885729" d="M1038.02 232.114C1038.6 232.227 1038.84 232.234 1039.41 232.572C1043.92 235.246 1047.89 244.289 1050.62 248.862C1066.62 275.665 1090.62 319.635 1096.51 349.722C1093.8 349.056 1090.99 348.653 1088.25 348.158L1080.21 346.52C1070.16 323.814 1060.8 301.079 1049.16 279.075C1042.76 266.978 1034.77 255.794 1028.35 243.746C1031.1 239.632 1034.82 235.898 1038.02 232.114Z"/>
		<path fill="#885729" d="M816.96 601.911L818.557 603.01C824.523 615.057 819.476 640.054 816.392 653.239C808.321 687.745 790.402 719.389 759.831 738.511C758.638 738.786 757.982 738.881 756.793 738.559C756.422 736.965 756.737 736.407 757.515 735.039C760.219 730.289 763.94 725.907 766.885 721.242C775.434 707.703 783.507 693.629 790.056 679C795.518 666.799 800.86 654.152 804.772 641.359C808.694 628.534 811.429 614.051 816.96 601.911Z"/>
		<path fill="#885729" d="M596.363 713.962C606.107 712.547 619.957 716.671 628.757 720.884C630.384 721.663 631.919 722.311 632.539 724.064C629.275 727.295 570.417 740.061 560.711 742.908C550.116 745.633 539.582 748.676 528.667 749.813Q530.932 745.776 533.743 742.099C548.388 722.85 573.7 716.874 596.363 713.962Z"/>
		<path fill="#885729" d="M527.294 551.891C543.521 551.432 560.417 553.288 575.572 559.413C585.236 563.318 618.649 580.029 621.069 589.121C621.471 590.633 621.23 590.943 620.509 592.203C617.256 592.023 612.954 589.989 609.799 588.913C590.783 582.491 571.818 575.8 552.696 569.708C540.529 565.832 527.936 562.748 515.944 558.411C514.134 557.757 513.151 557.375 512.023 555.848L512.683 554.74C517.049 552.557 522.494 552.287 527.294 551.891Z"/>
		<path fill="#885729" d="M899.816 383.45C902.255 383.038 905.268 383.62 907.771 383.851C926.441 385.573 947.166 391.262 964.037 399.714C961.659 402.908 958.946 405.691 956.174 408.539C947.92 404.557 939.514 401.494 930.733 398.92C904.356 391.188 879.431 389.155 854.636 402.742C842.36 410.345 833.982 420.519 827.379 433.229C824.523 438.729 821.897 444.396 818.353 449.497L817.764 450.332C821.12 434.411 826.275 419.962 837.476 407.736C853.842 389.873 876.511 384.548 899.816 383.45Z"/>
		<path fill="#885729" d="M990.244 172.069C997.636 177.474 1008.19 191.506 1013.72 199.113C1010.56 202.972 1007.54 207.233 1003.53 210.231C994.634 201.795 986.633 192.024 978.63 182.746C982.342 178.937 986.125 175.435 990.244 172.069Z"/>
		<path fill="#885729" d="M1093.68 388.841C1098.53 388.684 1103.19 389.636 1107.92 390.51C1107.99 390.672 1108.05 390.832 1108.11 390.994L1108.42 391.806C1110.88 398.297 1113.81 408.363 1112.79 415.239C1107.46 414.457 1102.5 412.693 1097.43 410.942C1095.51 405.566 1092.06 394.317 1093.68 388.841Z"/>
	</g>
	<g>
		<path fill="#885729" d="M872.794 400.047L874.393 400.23L875.184 401.484C875.241 402.465 875.225 403.179 874.921 404.128C871.51 414.763 864.846 424.925 854.752 430.02C853.492 429.887 854.066 430.127 853.059 429.234C853.184 428.528 853.277 427.918 853.591 427.264C855.803 422.657 865.731 405.101 868.77 402.032C869.872 400.92 871.329 400.48 872.794 400.047Z"/>
		<path fill="#885729" d="M829.541 453.968C829.57 454.099 829.608 454.228 829.628 454.361C830.097 457.594 827.3 461.325 825.37 463.678C821.365 468.562 808.641 480.385 802.541 480.956C802.256 479.821 802.247 480.217 802.346 479.17C802.693 475.505 825.232 457.703 829.541 453.968Z"/>
	</g>
</svg>
